<svg xmlns="http://www.w3.org/2000/svg" width="40" height="40" fill="none"><g clip-path="url(#a)"><path fill="#4285F4" d="M39.2 20.45c0-1.41-.13-2.78-.36-4.09H20v7.75h10.76a9.22 9.22 0 0 1-4.01 6.02v5.03h6.49c3.78-3.49 5.96-8.61 5.96-14.7Z"/><path fill="#34A853" d="M20 40c5.4 0 9.93-1.78 13.24-4.84l-6.5-5.03A11.91 11.91 0 0 1 20 32.05c-5.2 0-9.62-3.5-11.2-8.23H2.15v5.16A19.98 19.98 0 0 0 20 40Z"/><path fill="#FBBC05" d="M8.8 23.8c-.4-1.2-.64-2.47-.64-3.8 0-1.33.24-2.6.64-3.8v-5.16H2.15a19.75 19.75 0 0 0 0 17.92l5.18-4.03L8.8 23.8Z"/><path fill="#EA4335" d="M20 7.96c2.95 0 5.56 1.02 7.65 2.99l5.73-5.73A19.19 19.19 0 0 0 20 0C12.18 0 5.44 4.5 2.15 11.04L8.8 16.2c1.58-4.73 6-8.24 11.2-8.24Z"/></g><defs><clipPath id="a"><path fill="#fff" d="M0 0h40v40H0z"/></clipPath></defs></svg>