<svg xmlns="http://www.w3.org/2000/svg" width="24" height="24" fill="none"><path fill="#fff" stroke="#76786B" d="m12 22-.37.33.37.42.37-.42L12 22Zm0 0 .37.33.02-.02.06-.07a29.43 29.43 0 0 0 1.03-1.23 47.8 47.8 0 0 0 2.43-3.28c.89-1.31 1.78-2.8 2.45-4.3.67-1.5 1.14-3.03 1.14-4.43 0-4.18-3.32-7.5-7.5-7.5A7.46 7.46 0 0 0 4.5 9c0 1.4.47 2.94 1.14 4.43.67 1.5 1.56 2.99 2.45 4.3a47.79 47.79 0 0 0 3.46 4.51l.02.03.04.04.01.02L12 22Z"/><path fill="#C6C8B9" d="M12 2C8.1 2 5 5.1 5 9c0 5.2 7 13 7 13s7-7.8 7-13c0-3.9-3.1-7-7-7Zm2.5 11L12 11.5 9.5 13l.7-2.8L8 8.3l2.9-.2L12 5.4 13.1 8l2.9.3-2.2 1.9.7 2.8Z"/></svg>