<svg xmlns="http://www.w3.org/2000/svg" width="24" height="24" fill="none"><path fill="#fff" stroke="#374E00" d="m12 22-.37.33.37.42.37-.42L12 22Zm0 0 .37.33.02-.02.06-.07a29.43 29.43 0 0 0 1.03-1.23 47.8 47.8 0 0 0 2.43-3.28c.89-1.31 1.78-2.8 2.45-4.3.67-1.5 1.14-3.03 1.14-4.43 0-4.18-3.32-7.5-7.5-7.5A7.46 7.46 0 0 0 4.5 9c0 1.4.47 2.94 1.14 4.43.67 1.5 1.56 2.99 2.45 4.3a47.79 47.79 0 0 0 3.46 4.51l.02.03.04.04.01.02L12 22Z"/><path fill="#4B6700" d="M12 11.5a2.5 2.5 0 1 1 0-5 2.5 2.5 0 0 1 0 5ZM12 2a7 7 0 0 0-7 7c0 5.25 7 13 7 13s7-7.75 7-13a7 7 0 0 0-7-7Z"/></svg>