<svg xmlns="http://www.w3.org/2000/svg" width="24" height="24" fill="none"><path fill="#fff" stroke="#93000A" d="m12 22-.37.33.37.42.37-.42L12 22Zm0 0 .37.33.02-.02.06-.07a29.43 29.43 0 0 0 1.03-1.23 47.8 47.8 0 0 0 2.43-3.28c.89-1.31 1.78-2.8 2.45-4.3.67-1.5 1.14-3.03 1.14-4.43 0-4.18-3.32-7.5-7.5-7.5A7.46 7.46 0 0 0 4.5 9c0 1.4.47 2.94 1.14 4.43.67 1.5 1.56 2.99 2.45 4.3a47.79 47.79 0 0 0 3.46 4.51l.02.03.04.04.01.02L12 22Z"/><path fill="#FF5449" fill-rule="evenodd" d="M5 9c0-3.9 3.1-7 7-7s7 3.1 7 7c0 5.2-7 13-7 13S5 14.2 5 9Zm6.56 3.1.44.4.44-.4C13.98 10.7 15 9.79 15 8.66 15 7.72 14.27 7 13.35 7a1.8 1.8 0 0 0-1.35.62A1.8 1.8 0 0 0 10.65 7C9.73 7 9 7.72 9 8.65c0 1.13 1.02 2.06 2.56 3.46Z" clip-rule="evenodd"/></svg>