<svg xmlns="http://www.w3.org/2000/svg" width="60" height="40" fill="none" viewBox="0 0 60 40"><g fill="#171E09" clip-path="url(#a)"><path d="M57.07 39.82c0 .08-.04.12-.13.12a9.32 9.32 0 0 1-.84-.02c-.2 0-.42 0-.64.02h-.64c-.02 0-.04-.01-.04-.05l-.01-.1c0-.05.03-.08.09-.08h.15l.09.01h.1c.18 0 .27-.09.3-.27 0-.36.02-.73 0-1.1v-1.53c0-.14 0-.31-.02-.52a2.07 2.07 0 0 0-.08-.5c-.1-.33-.31-.5-.64-.5-.3 0-.57.09-.82.24-.25.16-.47.35-.65.59l-.01 1.34v1.98c0 .1.04.16.12.2a.5.5 0 0 0 .23.07h.14l.14-.03c.02 0 .04.02.04.05l.01.07c0 .03 0 .06-.02.09s-.04.04-.08.04a8.72 8.72 0 0 1-.8-.02c-.2 0-.4 0-.61.02h-.64c-.03 0-.04-.01-.05-.05v-.1c0-.05.03-.08.08-.08h.13l.1.01h.08c.18 0 .28-.09.3-.27v-3.72a.66.66 0 0 0-.06-.26c-.04-.09-.1-.13-.21-.13a.7.7 0 0 0-.23.03.71.71 0 0 1-.23.04c-.04 0-.06-.03-.06-.1v-.03a.1.1 0 0 1 .02-.04h.02a.1.1 0 0 0 .03-.02c.11-.03.22-.06.34-.07a2.9 2.9 0 0 0 .65-.13c.1-.04.2-.05.3-.05.03 0 .07.02.1.06a.8.8 0 0 1 .07.24l.03.3.02.27a3.57 3.57 0 0 1 1.06-.74c.2-.09.41-.13.6-.13.57 0 .94.12 1.14.38.2.24.3.64.3 1.18v2.89c0 .12.03.2.1.25.07.03.15.05.25.05h.15a.3.3 0 0 1 .13-.03c.04 0 .06.02.08.05l.02.08Zm-7-2.31c0-.27-.02-.53-.07-.8a2.5 2.5 0 0 0-.22-.75c-.1-.23-.25-.41-.45-.55-.2-.14-.47-.21-.8-.21-.3 0-.55.07-.74.22-.19.15-.34.34-.45.58-.1.23-.18.49-.22.76a5.8 5.8 0 0 0 0 1.57c.04.26.12.5.23.72.11.21.27.38.47.51.2.13.47.2.8.2.3 0 .56-.07.75-.2.2-.14.34-.32.44-.54.1-.23.17-.47.2-.73.04-.27.06-.53.06-.78Zm.94.03A2.42 2.42 0 0 1 48.57 40c-.45 0-.85-.1-1.21-.32a2.44 2.44 0 0 1-1.18-2.12 2.7 2.7 0 0 1 1.16-2.24c.37-.24.79-.36 1.26-.36.52 0 .95.1 1.31.33.36.22.63.52.81.91a3 3 0 0 1 .29 1.34Zm-5.55 1.09c0 .28-.06.51-.18.7-.12.17-.28.3-.48.4-.19.08-.4.15-.64.19-.23.03-.45.05-.67.05-.2 0-.4-.02-.6-.06-.2-.05-.4-.08-.6-.1a610.4 610.4 0 0 1-.33-1.23c0-.05.02-.08.05-.1a.17.17 0 0 1 .1-.04c.05 0 .08.02.1.05l.09.17a9.27 9.27 0 0 0 .2.43l.18.2c.24.25.54.38.89.38a2 2 0 0 0 .53-.07c.17-.04.3-.12.4-.24.1-.12.14-.3.14-.53a.7.7 0 0 0-.18-.5 1.73 1.73 0 0 0-.48-.35 9.2 9.2 0 0 0-.6-.31 6.4 6.4 0 0 1-.61-.33 1.7 1.7 0 0 1-.47-.44 1.07 1.07 0 0 1-.18-.63c0-.3.07-.56.22-.75.16-.19.36-.33.6-.42a2 2 0 0 1 .77-.15c.17 0 .32.02.45.06a8.92 8.92 0 0 1 .59.19h.23a.3.3 0 0 0 .07 0 5.67 5.67 0 0 1 .1.68 3.59 3.59 0 0 1 .03.32.4.4 0 0 1-.03.14c-.02.04-.05.07-.1.07l-.12-.01c-.02-.02-.04-.04-.06-.09a1.81 1.81 0 0 1-.15-.4 1.04 1.04 0 0 0-.4-.52c-.2-.13-.41-.2-.64-.2-.29 0-.5.08-.65.26a1 1 0 0 0-.22.68c0 .1.03.2.07.28a1.22 1.22 0 0 0 .64.53l.5.2c.2.1.42.21.64.34.22.13.41.3.57.48a1 1 0 0 1 .23.67Zm-4.03 1.19c0 .03 0 .07-.02.1a.09.09 0 0 1-.08.03 14.11 14.11 0 0 1-1.02-.02h-.25l-.55.01-.53.01c-.02 0-.04-.01-.05-.04a.4.4 0 0 1-.01-.08v-.06c.01-.02.03-.03.06-.04a.18.18 0 0 1 .1 0h.36a.6.6 0 0 0 .23-.05c.07-.05.1-.12.1-.22v-3.71c0-.11-.01-.19-.05-.25-.03-.06-.11-.09-.23-.09a3.66 3.66 0 0 0-.52.05c-.05 0-.07-.03-.07-.09s.02-.1.07-.12a9.18 9.18 0 0 0 1.55-.32c.07 0 .1.04.1.12v4.41c0 .1.04.17.13.22a.8.8 0 0 0 .25.05h.19l.19-.02c.02 0 .04.02.04.05a.4.4 0 0 1 .01.06Zm-.74-6.42a.55.55 0 0 1-.56.55.55.55 0 0 1-.55-.55c0-.16.05-.29.16-.4a.53.53 0 0 1 .4-.16.5.5 0 0 1 .39.17c.1.1.16.23.16.39Zm-3.82 5.48a12.79 12.79 0 0 1-.06-1.7h-.12c-.2 0-.4.04-.63.1a2.16 2.16 0 0 0-1.17.7.99.99 0 0 0-.19.6c0 .3.08.53.25.69.16.15.39.22.67.22.13 0 .28-.03.44-.1a3.23 3.23 0 0 0 .8-.51Zm1.6.6-.01.05a.65.65 0 0 1-.31.31.96.96 0 0 1-.42.1c-.26 0-.44-.07-.56-.22-.1-.15-.2-.34-.26-.56-.24.21-.5.4-.77.54-.28.15-.58.22-.9.22a1.6 1.6 0 0 1-.65-.13 1.2 1.2 0 0 1-.47-.4 1.07 1.07 0 0 1-.19-.63c0-.26.07-.49.2-.67.13-.2.3-.36.5-.49s.43-.24.66-.32a4.87 4.87 0 0 1 1.1-.28l.42-.07c0-.18 0-.38-.02-.6a1.36 1.36 0 0 0-.14-.58 1.34 1.34 0 0 0-.32-.38.68.68 0 0 0-.45-.16c-.28 0-.5.07-.66.22a1.25 1.25 0 0 0-.36.83c0 .03-.03.07-.08.1a.2.2 0 0 1-.12.04.63.63 0 0 1-.32-.09c-.09-.05-.13-.15-.13-.28 0-.07.01-.14.03-.2.08-.18.21-.34.39-.47a2.01 2.01 0 0 1 1.2-.4c.33 0 .62.07.9.2a1.5 1.5 0 0 1 .88 1.43v1.22c0 .4 0 .82.03 1.22 0 .14.03.26.08.37.05.1.15.15.3.15a.6.6 0 0 0 .25-.06l.17-.07c.02 0 .03.02.03.05Zm-5.16.34c0 .03 0 .07-.02.1a.09.09 0 0 1-.08.03 14.12 14.12 0 0 1-1.02-.02h-.25l-.55.01-.53.01c-.02 0-.04-.01-.05-.04a.4.4 0 0 1-.01-.08v-.06c.01-.02.03-.03.06-.04a.18.18 0 0 1 .1 0h.36c.09 0 .16-.02.23-.05.07-.05.1-.12.1-.22v-3.71c0-.11-.01-.19-.05-.25-.03-.06-.1-.09-.23-.09a3.65 3.65 0 0 0-.52.05c-.05 0-.07-.03-.07-.09s.02-.1.07-.12a9.27 9.27 0 0 0 1.55-.32c.08 0 .1.04.1.12v4.41c0 .1.04.17.13.22a.8.8 0 0 0 .25.05h.19l.19-.02c.02 0 .04.02.04.05a.4.4 0 0 1 .01.06Zm-.74-6.42a.55.55 0 0 1-.56.55.55.55 0 0 1-.55-.55c0-.16.05-.29.16-.4a.53.53 0 0 1 .4-.16.5.5 0 0 1 .39.17c.1.1.16.23.16.39Zm-2.3 4.46a1.14 1.14 0 0 1-.04.28c-.04.27-.08.55-.1.84a9.24 9.24 0 0 1-.15.9.23.23 0 0 1-.16.06 42.52 42.52 0 0 1-1.8-.01H26.9l-1.1.01-.62.02c-.2.02-.4.02-.6.02-.08 0-.12-.04-.12-.13 0-.08.04-.13.13-.13l.17.01h.18c.08 0 .17-.01.25-.05a.2.2 0 0 0 .14-.2v-5.79c-.02-.1-.05-.16-.1-.2-.05-.05-.14-.07-.28-.07l-.18.01-.17.01c-.05 0-.08-.01-.1-.04a.4.4 0 0 1 0-.2c.01-.03.04-.05.08-.05a18.71 18.71 0 0 1 1.2.02 27.01 27.01 0 0 0 1.4-.02c.05 0 .07.02.08.05l.02.08c0 .03 0 .06-.02.1 0 .03-.03.04-.07.04h-.47c-.1 0-.2 0-.3.03-.09.03-.14.1-.14.23v5.7c0 .1.04.18.13.23.08.04.18.07.3.07l.27.01.8-.01c.27-.02.53-.05.8-.09a1.53 1.53 0 0 0 .9-.52c.15-.18.26-.37.34-.57l.24-.64c.02-.04.04-.06.06-.07l.1-.01.03.04a.1.1 0 0 1 .02.04Zm-6.33 1.98c0 .09-.03.13-.1.13-.17 0-.35 0-.52-.02a7.58 7.58 0 0 0-1.07 0c-.18.02-.36.02-.53.02-.03 0-.05-.01-.06-.04a.4.4 0 0 1 0-.08c0-.05.02-.09.08-.1a.67.67 0 0 1 .19-.01l.16.01c.09 0 .16-.02.21-.07.06-.04.08-.1.08-.2a81.49 81.49 0 0 1 .03-2.45v-.41l-.03-.46c-.01-.16-.03-.3-.08-.44a.7.7 0 0 0-.22-.35.68.68 0 0 0-.45-.13c-.14 0-.3.05-.46.13a3.14 3.14 0 0 0-.86.6l.02.28v.81a15.87 15.87 0 0 1 0 1.48v.95c0 .1.04.16.12.2.08.03.15.05.23.05h.15c.06-.02.1-.02.15-.02.03 0 .05.02.05.05l.02.07-.03.1c-.02.02-.04.03-.08.03-.17 0-.34 0-.52-.02a7.2 7.2 0 0 0-1.04 0c-.18.02-.36.02-.53.02-.03 0-.05-.01-.06-.04a.22.22 0 0 1-.02-.08c0-.05.03-.08.08-.1.04-.01.1-.02.17-.01l.18.01c.09 0 .16-.02.21-.06.06-.04.1-.1.1-.2v-2.37a15.64 15.64 0 0 0-.05-1.05c-.02-.2-.05-.34-.1-.45a.5.5 0 0 0-.22-.26.6.6 0 0 0-.33-.1c-.16 0-.32.04-.49.12a3.02 3.02 0 0 0-.84.65v3.45c0 .1.04.16.1.2.07.04.14.06.22.06h.15l.14-.03c.02 0 .04.02.04.06a.4.4 0 0 1 .01.06c0 .03 0 .07-.03.1 0 .02-.03.03-.07.03a6.61 6.61 0 0 1-.7-.02 26.4 26.4 0 0 1-1.39.03c-.02 0-.04-.02-.05-.05a.22.22 0 0 1-.02-.08c0-.07.03-.1.1-.1h.37a.4.4 0 0 0 .22-.06c.06-.04.09-.1.09-.2l-.01-1.88v-1.88c0-.07 0-.14-.02-.2a.17.17 0 0 0-.12-.15.34.34 0 0 0-.13-.02.8.8 0 0 0-.24.03 1 1 0 0 1-.25.03c-.05 0-.08-.04-.08-.11 0-.05.02-.08.05-.1a23.5 23.5 0 0 0 1.38-.25c.08 0 .13.06.15.17a6.03 6.03 0 0 1 .05.61 7.07 7.07 0 0 1 .94-.65c.18-.09.35-.13.53-.13.31 0 .57.05.79.15.2.11.4.3.54.6a5 5 0 0 1 1-.66c.18-.09.37-.13.55-.13.4 0 .7.06.91.18.22.11.36.3.43.54.08.25.12.56.12.94a116.98 116.98 0 0 1-.01 2.92c0 .1.04.16.11.2a.8.8 0 0 0 .25.05h.14c.05-.02.1-.02.14-.02.02 0 .04.02.04.05l.02.07Zm-8.42-4.01c0 .06-.02.12-.07.18a.2.2 0 0 1-.17.07.22.22 0 0 1-.2-.1 1.38 1.38 0 0 1-.1-.2.56.56 0 0 0-.12-.22c-.05-.06-.14-.1-.27-.1h-.07l-.07.02a.72.72 0 0 0-.34.2 2.87 2.87 0 0 0-.63.84 1.2 1.2 0 0 0-.12.37v2.57c0 .1.04.16.11.2.08.04.16.06.24.06h.18l.19-.02c.03 0 .05.02.06.05l.02.07c0 .1-.05.15-.15.15a16.2 16.2 0 0 1-1.1-.03l-.57.02a8.8 8.8 0 0 1-.58.02c-.02 0-.04-.02-.05-.05a.6.6 0 0 1-.01-.1c0-.06.02-.1.07-.1a.79.79 0 0 1 .21 0h.2c.1 0 .17-.02.22-.05.06-.05.1-.12.1-.22.02-.2.02-.4.02-.6l.01-.62v-1.69c0-.26-.01-.53-.03-.79-.01-.12-.04-.2-.1-.26a.47.47 0 0 0-.28-.08.7.7 0 0 0-.16.02h-.15c-.05 0-.07-.03-.07-.1 0-.05.02-.08.06-.1a2.43 2.43 0 0 1 .38-.06l.5-.1.5-.1c.05.01.09.05.11.1l.03.2v1.06c.14-.22.3-.43.46-.65.18-.22.37-.4.59-.54.22-.14.47-.21.74-.21.15 0 .24.04.28.14a2.26 2.26 0 0 1 .13.75Zm-5.64 3.05a12.79 12.79 0 0 1-.05-1.7H9.7c-.2 0-.4.04-.63.1a2.16 2.16 0 0 0-1.17.7.99.99 0 0 0-.19.6c0 .3.08.53.25.69.16.15.39.22.67.22.13 0 .28-.03.44-.1a3.23 3.23 0 0 0 .81-.51Zm1.6.6v.05a.65.65 0 0 1-.32.31.96.96 0 0 1-.42.1c-.26 0-.44-.07-.56-.22-.1-.15-.2-.34-.26-.56-.24.21-.5.4-.77.54-.28.15-.58.22-.9.22a1.6 1.6 0 0 1-.65-.13 1.2 1.2 0 0 1-.47-.4 1.07 1.07 0 0 1-.19-.63c0-.26.07-.49.2-.67.13-.2.3-.36.5-.49s.43-.24.66-.32A4.87 4.87 0 0 1 9.4 37l.43-.07-.03-.6a1.35 1.35 0 0 0-.14-.58 1.34 1.34 0 0 0-.32-.38.68.68 0 0 0-.45-.16c-.28 0-.5.07-.66.22a1.25 1.25 0 0 0-.36.83c0 .03-.03.07-.08.1a.2.2 0 0 1-.11.04.63.63 0 0 1-.32-.09c-.1-.05-.14-.15-.14-.28 0-.07.01-.14.04-.2.07-.18.2-.34.38-.47a2.02 2.02 0 0 1 1.2-.4c.33 0 .63.07.9.2a1.5 1.5 0 0 1 .88 1.43v1.22c0 .4 0 .82.03 1.22 0 .14.03.26.08.37.05.1.15.15.3.15a.6.6 0 0 0 .25-.06l.17-.07c.02 0 .03.02.03.05Zm-5-5c0 .06-.02.1-.06.14a.2.2 0 0 1-.13.05c-.06 0-.1-.01-.12-.04a.75.75 0 0 1-.05-.12c-.1-.33-.26-.58-.48-.74-.21-.16-.5-.24-.85-.24H3.13v2.8l.84-.02a12.68 12.68 0 0 0 1.91-.2h.02c.01 0 .02 0 .03.02.02 0 .03.01.03.02a.8.8 0 0 1-.06.24c-.04.1-.07.18-.1.22-.02.07-.07.11-.13.11h-.14a6.91 6.91 0 0 0-1.42-.06h-.29c-.1 0-.22 0-.33.02-.1.02-.19.06-.26.12s-.1.15-.1.26v2.1c0 .07.01.14.04.2l.13.16c.1.08.2.13.34.15l.38.01c.09 0 .13.05.13.14 0 .1-.05.15-.16.15a5.06 5.06 0 0 1-.62-.03H3a7.2 7.2 0 0 0-.99.02c-.2.02-.4.02-.62.02-.02 0-.05 0-.08-.03a.12.12 0 0 1-.04-.08l.01-.1c.01-.03.04-.05.1-.06l.15-.02.15-.01c.23-.05.37-.14.42-.27.06-.14.1-.31.1-.52v-4.97c0-.15-.05-.24-.15-.28a.85.85 0 0 0-.35-.07h-.33c-.11 0-.17-.05-.17-.16 0-.05 0-.09.02-.13.01-.03.05-.05.1-.05a5.84 5.84 0 0 1 .67.02H3.6a44.98 44.98 0 0 0 2.68-.06l.12.65c.06.25.08.46.08.64Z"/><path fill-rule="evenodd" d="M16.23 4.95c.2.38.42.8.73 1.27.14.22.28.5.25.8-.05.36-.32.54-.54.62-.21.08-.48.12-.75.13-.27.02-.6.03-.95.03h-.12c-1.43.02-3.47.04-5.68.75-1.82.59-2.15 1.32-2.13 1.79.01.27.14.56.36.84.22.28.51.52.8.67.23.12.32.4.2.63a.45.45 0 0 1-.62.2 3.8 3.8 0 0 1-1.1-.91c-.3-.39-.53-.86-.55-1.39-.06-1.12.83-2.1 2.76-2.72 2.35-.75 4.5-.77 5.94-.79a232.32 232.32 0 0 0 1.03-.02c.17-.01.3-.03.38-.05a1.7 1.7 0 0 0-.04-.06 13.1 13.1 0 0 1-.77-1.35l-.01-.02c-.2-.39-.35-.65-.51-.85a.92.92 0 0 0-.51-.34 2.95 2.95 0 0 0-1.15.01l-1.17.16c-.59.08-1.04.14-1.4.23-.28.07-.45.14-.55.21a.42.42 0 0 0-.16.26c-.09.33-.15.6-.2.84l-.05.23c-.07.32-.14.6-.27.93a.46.46 0 0 1-.59.26.47.47 0 0 1-.26-.6c.1-.26.16-.5.23-.79l.05-.22c.05-.25.11-.54.2-.89.08-.32.26-.58.52-.77.24-.18.54-.29.86-.36.4-.1.94-.18 1.58-.26l1.08-.15c.6-.1 1.1-.1 1.5.01.44.11.74.34 1 .65.22.28.4.63.6 1l.01.02Zm1.18 2.78c0-.25.2-.46.46-.46.37 0 .83.1 1.23.27s.83.45 1.07.86c.12.22.19.47.17.75a1.6 1.6 0 0 1-.3.8c-.34.49-.98.98-1.96 1.49a.45.45 0 0 1-.62-.2.47.47 0 0 1 .2-.63 4.5 4.5 0 0 0 1.63-1.2.8.8 0 0 0 .14-.33.36.36 0 0 0-.05-.2c-.1-.17-.32-.35-.63-.48-.31-.14-.64-.2-.88-.2a.46.46 0 0 1-.46-.47Zm10.07-2.66a5.61 5.61 0 0 0-2.72.45c-1.46.6-2.08 1.77-2.1 2.53-.02.4.1.58.2.63.11.06.4.12.95-.23 3.45-2.17 6.25-1.75 7.79-1.52l.06.01.05.01c.62.1 1.13.26 1.5.48.36.21.68.52.75.92.08.47-.21.83-.57 1.02-.35.2-.85.29-1.45.29a.46.46 0 0 1-.45-.47c0-.26.2-.46.45-.46.53 0 .85-.09 1.02-.18a.4.4 0 0 0 .09-.06c-.02-.04-.1-.13-.3-.25a3.38 3.38 0 0 0-1.18-.37h-.04l-.07-.02c-1.48-.22-4-.6-7.17 1.39-.67.42-1.33.55-1.86.26-.53-.3-.72-.91-.7-1.48.05-1.17.93-2.65 2.68-3.37a6.54 6.54 0 0 1 3.17-.5c1 .12 1.93.54 2.52 1.37.15.21.1.5-.1.65-.21.15-.5.1-.64-.1-.4-.57-1.06-.9-1.88-1Zm5.58 3.4v.01-.01ZM13 15.66a3.3 3.3 0 0 0 3.28-3.33A3.3 3.3 0 0 0 13 9a3.3 3.3 0 0 0-3.28 3.33A3.3 3.3 0 0 0 13 15.66Zm0 .93c2.32 0 4.2-1.9 4.2-4.26A4.23 4.23 0 0 0 13 8.07c-2.31 0-4.2 1.9-4.2 4.26a4.23 4.23 0 0 0 4.2 4.26Zm18.38-4.26a3.3 3.3 0 0 1-3.28 3.33 3.3 3.3 0 0 1-3.28-3.33A3.3 3.3 0 0 1 28.1 9a3.3 3.3 0 0 1 3.28 3.33Zm.92 0a4.23 4.23 0 0 1-4.2 4.26c-2.31 0-4.2-1.9-4.2-4.26a4.23 4.23 0 0 1 4.2-4.26c2.32 0 4.2 1.9 4.2 4.26Zm14.18 0a3.3 3.3 0 0 1-3.28 3.33 3.3 3.3 0 0 1-3.28-3.33A3.3 3.3 0 0 1 43.2 9a3.3 3.3 0 0 1 3.28 3.33Zm.92 0a4.23 4.23 0 0 1-4.2 4.26c-2.31 0-4.2-1.9-4.2-4.26a4.23 4.23 0 0 1 4.2-4.26c2.32 0 4.2 1.9 4.2 4.26ZM4.45 30.92a14.8 14.8 0 0 1 .9-7.79 8.04 8.04 0 0 1 2.64-3.42 8.22 8.22 0 0 1 4.93-1.42c2.92 0 5.1 1.17 6.6 2.82a10.06 10.06 0 0 0-1.63 3.35 9.05 9.05 0 0 0-.06 4.9c.4 1.36 1.3 2.44 2.64 2.44 1.36 0 2.16-1.12 2.46-2.47a9.5 9.5 0 0 0-.43-4.9c-.39-1.15-.98-2.3-1.78-3.33.26-.28.54-.55.84-.8a9.23 9.23 0 0 1 6.1-2.01 9.79 9.79 0 0 1 7.42 3.02c-.75.97-1.32 2.04-1.72 3.1a8.98 8.98 0 0 0-.53 4.92c.16.7.45 1.31.9 1.76a2.5 2.5 0 0 0 1.8.71c1.48 0 2.42-1.05 2.81-2.44a8.48 8.48 0 0 0-.33-4.93 10.8 10.8 0 0 0-1.72-3.13 8.86 8.86 0 0 1 6.75-3.01 8.1 8.1 0 0 1 4.91 1.46 8.67 8.67 0 0 1 2.75 3.53 17.02 17.02 0 0 1 1.22 8.02c-.02.25.16.48.42.5.08.01.16 0 .23-.04.2-.03.36-.2.38-.41.3-3.68.66-6.62 1.86-9.87.32.2.68.22 1.01.13.39-.1.75-.33 1.04-.6.3-.26.55-.59.73-.9.09-.15.16-.32.2-.48a.93.93 0 0 0 .01-.55.66.66 0 0 0-.15-.27 3.71 3.71 0 0 0 1.08-1.18c.1-.15.16-.31.2-.48a.92.92 0 0 0 .02-.55.7.7 0 0 0-.5-.47 1.07 1.07 0 0 0-.19-.04c.23-.32.36-.73.43-1.1.06-.41.07-.83 0-1.18a1.41 1.41 0 0 0-.19-.5.69.69 0 0 0-.58-.33c-.2 0-.37.09-.5.17a2 2 0 0 0-.37.33 3.54 3.54 0 0 0-.74 1.34c-.09-.15-.2-.31-.35-.43a.7.7 0 0 0-.67-.13 1 1 0 0 0-.43.33c-.1.13-.2.29-.27.45a3.77 3.77 0 0 0-.3 1.66l-.14.04a1 1 0 0 0-.44.33c-.1.13-.19.29-.26.45a4 4 0 0 0-.3 1.13c-.03.4-.01.83.13 1.2.15.37.42.7.86.81a27.43 27.43 0 0 0-1.55 5.74 15.3 15.3 0 0 0-1.06-3.5 9.6 9.6 0 0 0-3.04-3.9 9 9 0 0 0-5.45-1.64 9.73 9.73 0 0 0-7.36 3.24 10.69 10.69 0 0 0-8.01-3.24c-2.87 0-5.08.88-6.69 2.22-.3.25-.6.53-.86.82a9.54 9.54 0 0 0-7.2-3.04c-2.28 0-4.07.6-5.45 1.6a8.96 8.96 0 0 0-2.97 3.8 15.9 15.9 0 0 0-.96 8.31c.05.26.28.43.53.38a.46.46 0 0 0 .38-.53Zm14.32-6.21a9.1 9.1 0 0 1 1.36-2.87c.67.9 1.17 1.9 1.5 2.9.56 1.62.66 3.22.4 4.39-.26 1.18-.83 1.75-1.56 1.75-.76 0-1.4-.6-1.77-1.79a8.11 8.11 0 0 1 .07-4.38Zm15.45.04a11 11 0 0 1 1.47-2.72 9.86 9.86 0 0 1 1.46 2.7 7.6 7.6 0 0 1 .31 4.37c-.32 1.14-1 1.78-1.93 1.78-.5 0-.87-.17-1.15-.45-.3-.3-.53-.73-.66-1.3a8.06 8.06 0 0 1 .5-4.38Zm3.63-17.86c.32-.1.67-.18 1.07-.26a3.2 3.2 0 0 1 .97-1.85 4.51 4.51 0 0 1 3.25-1.13c3.1 0 4.44 1.94 4.72 3.02v.07c.22.04.41.1.59.15 1.15.35 1.87.89 2.1 1.63.24.74-.08 1.47-.5 2.06a7.4 7.4 0 0 1-1.69 1.59c-.2.14-.5.1-.64-.12a.47.47 0 0 1 .12-.65 6.5 6.5 0 0 0 1.47-1.37c.37-.51.47-.92.38-1.22-.1-.3-.45-.7-1.5-1.03a18.09 18.09 0 0 0-5.05-.53c-2.39 0-4 .21-5.02.53-1.04.32-1.38.72-1.46 1.01-.09.3.03.72.42 1.23.37.5.94.98 1.52 1.38.2.15.26.43.12.65a.45.45 0 0 1-.64.12 7.73 7.73 0 0 1-1.73-1.58c-.44-.58-.78-1.32-.57-2.06.22-.75.94-1.29 2.07-1.64Zm5.3-.57c-1.28 0-2.36.06-3.26.17.09-.31.28-.7.63-1.03.48-.47 1.29-.88 2.62-.88 2.26 0 3.32 1.18 3.7 1.97a26.3 26.3 0 0 0-3.7-.23Zm14.65 7.7c.03.22.03.5-.02.8-.05.32-.15.6-.28.75-.09.12-.17.16-.27.16a.39.39 0 0 1-.1-.25c0-.18.05-.43.16-.7a2.6 2.6 0 0 1 .51-.75Zm-2.29 1.26a.66.66 0 0 0-.09.15c-.1.22-.18.53-.21.83-.03.32 0 .59.07.77.05.13.12.2.2.24.12-.03.2-.11.25-.27.08-.21.1-.52.05-.86a2.64 2.64 0 0 0-.27-.86Zm-1.15 2.47v.01c.12.2.22.52.27.85.05.35.04.66-.04.87-.06.15-.13.24-.25.27-.09-.03-.15-.1-.2-.24-.08-.19-.1-.46-.07-.77a2.83 2.83 0 0 1 .29-1Zm3.64-.73h.02l-.08.15c-.12.22-.32.47-.54.67-.23.2-.47.35-.66.4-.13.03-.23.02-.31-.04-.04-.11-.02-.22.07-.36a2.54 2.54 0 0 1 1.5-.82Zm-1.13 2.48h-.01c-.23.02-.54.12-.84.28-.3.16-.54.35-.66.54-.1.14-.11.25-.08.36.09.06.18.07.32.03.2-.05.42-.18.65-.39a2.79 2.79 0 0 0 .62-.82ZM3.95 14.7c-.1.15-.1.33-.02.49.2.38.33.92.17 1.35-.09.21-.26.45-.63.65-.34-.82-1.06-2.13-1.47-1.95-.44.19-.23.7-.07.93a2.12 2.12 0 0 1-.09-.09c-.16-.15-.38-.38-.56-.18-.2.23 0 .51.18.65-.15-.11-.61-.14-.58.1.07.61.54.9.95 1.07-.07.1-.1.22-.08.33.04.35.26.69.51.96a3.48 3.48 0 0 0 4.11.67 2.99 2.99 0 0 0 1.27-4.11c.22-.18.23-.4.17-.47-.06-.06-.35.02-.57.13a.45.45 0 0 0-.33.08.47.47 0 0 0-.1.65c.51.74.45 2.16-.88 2.9-.8.45-1.6.36-2.23.06a2.59 2.59 0 0 1-.77-.55l-.02-.02c1.11-.24 1.77-.77 2.04-1.47.25-.66.13-1.34-.08-1.85.32-.33.57-.34.72-.3.24.05.47.25.61.46.14.22.42.27.63.13a.47.47 0 0 0 .13-.65 2.27 2.27 0 0 0-.36-.42c-.36-.6-1.01-1.38-1.48-1.13-.22.13-.2.3-.15.42-.12-.17-.36-.38-.58-.19-.26.22-.12.52-.01.65-.13-.06-.4-.14-.5.05-.05.13-.02.43.07.66Zm2.18 1.1c-.13.08-.33-.05-.45-.28-.11-.22-.1-.46.03-.53.14-.07.34.05.45.28.12.23.1.47-.03.54Zm26.21 9.87a.3.3 0 0 1-.08.35l-1.6 1.36c.33.2.57.53.6.9.04.67-.55 1.25-1.32 1.31h-.22a.9.9 0 0 1 .1.29c.12.59-.37 1.18-1.08 1.32-.6.12-1.16-.1-1.4-.51l-.05.08c-.39.66-1.16.91-1.74.56a1.08 1.08 0 0 1-.29-.25c-.06.24-.2.47-.43.66-.5.42-1.17.43-1.51.02-.34-.4-.22-1.08.28-1.5.08-.08.17-.14.26-.19a.8.8 0 0 1-.22-.43c-.08-.47.28-.93.8-1.02l.17-.02a.92.92 0 0 1-.06-.83c.16-.35.57-.53 1.04-.5a1.07 1.07 0 0 1-.02-1c.26-.52.84-.73 1.3-.5l.04.03c.19-.46.59-.77 1.05-.76.52.01.95.43 1.07 1a.9.9 0 0 1 .77.07c.28.17.44.47.45.8l.67-.7a1.9 1.9 0 0 1-.72-.2 1.4 1.4 0 0 1-.47-.46.86.86 0 0 1-.56 0 .76.76 0 0 1-.38-.27.94.94 0 0 1-.15-.39 2.29 2.29 0 0 1-.04-.57v-.2c0-.27-.04-.53-.15-.72-.1-.18-.28-.32-.6-.37a.91.91 0 0 0-.74.17.34.34 0 0 0-.11.17c0 .04 0 .08.03.11.05.06.1.08.13.09l.08-.01a.17.17 0 0 0 .07-.06l.02-.04c-.01-.1.07-.2.17-.2.1-.01.2.07.2.18.02.2-.13.4-.3.47a.5.5 0 0 1-.33.04.63.63 0 0 1-.32-.2.5.5 0 0 1-.12-.45.72.72 0 0 1 .23-.4c.24-.2.62-.32 1.04-.26.44.07.71.28.88.57.15.28.2.6.2.9v.38c0 .12.01.23.03.33.02.1.05.17.09.23.04.05.1.1.19.13s.18.03.27.01c-.1-.3-.1-.6-.01-.85.08-.24.27-.48.58-.44.12.01.23.06.31.15.08.09.12.2.13.3.02.2-.05.43-.17.62-.08.14-.2.28-.34.39.08.12.2.23.33.3.21.13.51.2.92.16l.22-.23a.3.3 0 0 1 .19-.09l.31-.02a.3.3 0 0 1 .31.19Zm-5.77 2.03Zm3.5-2.93a1.1 1.1 0 0 1-.17.22 1 1 0 0 1 0-.53c.06-.16.14-.18.18-.18.06.01.08.03.09.04 0 0 .02.03.02.07a.66.66 0 0 1-.11.38Zm-2.35 4.21c.36-.02.6-.33.58-.64a.61.61 0 0 0-.67-.55.61.61 0 0 0-.58.64c.02.31.3.58.67.55Zm-1.4-.36c0 .01-.02.07-.16.1a.89.89 0 0 1-.54-.1.9.9 0 0 1-.41-.37c-.07-.12-.05-.18-.04-.18 0 0 .03-.06.16-.09a.89.89 0 0 1 .55.09c.2.1.35.24.41.37.07.12.04.18.04.18Zm-1.5.91c.04-.05.05-.08.04-.1 0-.02-.01-.05-.06-.09a.34.34 0 0 0-.24-.03.34.34 0 0 0-.2.11c-.05.05-.05.08-.05.1 0 .02.02.06.07.09s.14.06.24.04c.1-.02.17-.07.2-.12Zm4.34.48c0 .05 0 .14-.1.25a.81.81 0 0 1-.46.26.8.8 0 0 1-.53-.06c-.12-.07-.16-.14-.17-.2 0-.04 0-.13.09-.24a.8.8 0 0 1 .46-.26.8.8 0 0 1 .53.06c.13.07.17.14.18.2Zm.03-2.84c.1.06.26.03.34-.1a.26.26 0 0 0-.08-.36c-.1-.06-.26-.03-.34.1-.08.14-.03.3.08.36Zm1.38 1.17c.01.17-.17.52-.68.56-.5.03-.74-.28-.75-.46-.01-.17.17-.52.68-.55.5-.04.74.28.75.45Zm-4.76 1.53c-.24.4-.08.76.1.87.18.1.56.07.8-.33.23-.4.07-.76-.1-.86-.19-.11-.57-.08-.8.32Zm-1.97 1.44c-.01-.02-.04-.07-.02-.17s.09-.24.22-.36a.62.62 0 0 1 .38-.16c.1 0 .15.04.17.06.01.02.04.07.02.17a.64.64 0 0 1-.22.36.62.62 0 0 1-.38.16c-.1 0-.15-.04-.17-.06Zm4.53-4.95c.01-.43-.27-.62-.43-.62-.16 0-.44.17-.45.6-.01.44.27.63.43.63.16 0 .45-.18.45-.6Zm-1.72.46c-.11.21-.3.23-.39.18-.08-.04-.18-.2-.08-.42.1-.21.3-.23.39-.18.08.04.18.21.08.42Z" clip-rule="evenodd"/></g><defs><clipPath id="a"><path fill="#fff" d="M0 0h60v40H0z"/></clipPath></defs></svg>