<svg xmlns="http://www.w3.org/2000/svg" width="74" height="44" fill="none" viewBox="0 0 74 44"><path fill="#000" fill-rule="evenodd" d="M20.02 6.01c.24.46.51.97.9 1.54.17.27.35.6.3.96-.05.45-.4.67-.66.77-.26.1-.6.14-.92.16-.34.02-.74.03-1.18.03h-.14c-1.77.02-4.28.05-7.01.91-2.25.71-2.65 1.61-2.63 2.18.02.33.17.68.45 1.02.27.33.63.62.99.81a.56.56 0 0 1-.52 1 4.3 4.3 0 0 1-1.35-1.1 2.94 2.94 0 0 1-.7-1.68c-.06-1.37 1.03-2.55 3.41-3.3a24.1 24.1 0 0 1 7.33-.96h.16a21.37 21.37 0 0 0 1.58-.09 1.9 1.9 0 0 0-.05-.08c-.42-.62-.71-1.17-.95-1.63L19 6.53c-.25-.48-.43-.8-.62-1.04a1.14 1.14 0 0 0-.63-.41 3.7 3.7 0 0 0-1.42 0c-.54.09-1.02.15-1.44.2-.73.1-1.29.17-1.74.28-.33.08-.54.17-.66.26a.5.5 0 0 0-.2.3c-.11.4-.18.73-.25 1.03l-.06.29c-.09.37-.18.73-.33 1.12a.56.56 0 1 1-1.05-.41c.12-.31.2-.6.28-.96l.06-.27c.06-.3.14-.65.25-1.08.1-.39.32-.7.64-.93.3-.22.67-.35 1.06-.45.5-.12 1.16-.2 1.95-.3l1.33-.19a4.75 4.75 0 0 1 1.86.01c.53.14.9.42 1.21.79.29.34.52.77.75 1.2l.02.04Zm1.45 3.38c0-.31.26-.57.57-.57.46 0 1.02.12 1.52.34.5.2 1.02.54 1.31 1.05.15.26.24.56.22.9-.03.33-.16.65-.37.96-.42.6-1.21 1.2-2.43 1.82a.56.56 0 0 1-.5-1 5.46 5.46 0 0 0 2-1.46.82.82 0 0 0 .17-.4.43.43 0 0 0-.06-.26c-.12-.2-.39-.4-.78-.57-.38-.17-.8-.25-1.08-.25a.56.56 0 0 1-.57-.56ZM33.9 6.16a7.06 7.06 0 0 0-3.36.54c-1.8.72-2.55 2.15-2.6 3.08-.01.48.15.7.28.76.12.07.47.14 1.16-.28a13.03 13.03 0 0 1 9.6-1.84l.13.02c.77.11 1.4.32 1.86.58.44.26.84.63.92 1.12.1.57-.26 1-.7 1.24a3.9 3.9 0 0 1-1.78.34.56.56 0 1 1 0-1.12c.65 0 1.04-.1 1.25-.22a.5.5 0 0 0 .1-.07c-.02-.05-.1-.16-.35-.3-.31-.19-.8-.36-1.46-.46l-.14-.02a11.92 11.92 0 0 0-8.84 1.69c-.83.5-1.65.67-2.3.31-.65-.36-.88-1.1-.85-1.8.06-1.42 1.14-3.2 3.3-4.08a8.18 8.18 0 0 1 3.9-.6 4.3 4.3 0 0 1 3.11 1.66.56.56 0 1 1-.91.66c-.5-.69-1.3-1.1-2.32-1.2Zm6.89 4.12-.01.02v-.02Zm-24.75 8.73a4.04 4.04 0 1 0 0-8.09 4.04 4.04 0 0 0 0 8.1Zm0 1.13a5.17 5.17 0 1 0 0-10.34 5.17 5.17 0 0 0 0 10.34Zm22.66-5.17a4.04 4.04 0 1 1-8.09 0 4.04 4.04 0 0 1 8.1 0Zm1.13 0a5.17 5.17 0 1 1-10.35 0 5.17 5.17 0 0 1 10.35 0Zm17.5 0a4.04 4.04 0 1 1-8.1 0 4.04 4.04 0 0 1 8.1 0Zm1.12 0a5.17 5.17 0 1 1-10.34 0 5.17 5.17 0 0 1 10.34 0ZM5.48 37.54c-.38-2.3-.33-6.18 1.1-9.46a9.78 9.78 0 0 1 3.28-4.15 10.26 10.26 0 0 1 6.07-1.72c3.6 0 6.3 1.42 8.15 3.42a12.13 12.13 0 0 0-2.01 4.06c-.6 2.14-.6 4.3-.09 5.97.51 1.63 1.6 2.96 3.26 2.96 1.69 0 2.67-1.36 3.04-3 .37-1.67.2-3.83-.53-5.96a13.56 13.56 0 0 0-2.2-4.04c.32-.34.67-.67 1.04-.98 1.77-1.45 4.23-2.43 7.53-2.43 4.14 0 7.14 1.54 9.15 3.67a14.4 14.4 0 0 0-2.12 3.77 10.85 10.85 0 0 0-.66 5.97c.2.84.56 1.59 1.12 2.13.57.56 1.32.87 2.2.87 1.84 0 3-1.29 3.48-2.98.48-1.67.35-3.85-.41-5.98a13.04 13.04 0 0 0-2.12-3.8 11 11 0 0 1 8.32-3.65c2.57 0 4.55.69 6.06 1.77a10.55 10.55 0 0 1 3.39 4.29A20.38 20.38 0 0 1 64.04 38a.56.56 0 0 0 .8.57.56.56 0 0 0 .47-.51c.38-4.47.8-8.03 2.3-11.98.39.24.83.27 1.24.16.47-.11.92-.4 1.28-.72.36-.33.68-.72.9-1.1.1-.19.2-.39.25-.58.05-.2.08-.43.01-.67a.8.8 0 0 0-.18-.33 4.52 4.52 0 0 0 1.33-1.43c.1-.19.2-.39.25-.58.05-.2.08-.43.01-.67a.87.87 0 0 0-.61-.58 1.35 1.35 0 0 0-.23-.04 4.06 4.06 0 0 0 .53-2.77 1.7 1.7 0 0 0-.24-.6.85.85 0 0 0-.72-.4c-.24 0-.45.1-.61.2-.17.1-.32.25-.46.4a4.29 4.29 0 0 0-.92 1.63 1.6 1.6 0 0 0-.42-.52.87.87 0 0 0-.83-.17c-.24.09-.41.25-.53.4-.13.17-.24.36-.33.55a4.52 4.52 0 0 0-.38 2.02.82.82 0 0 0-.17.04c-.24.09-.41.25-.53.4-.13.17-.24.36-.33.55-.18.4-.31.89-.36 1.37-.05.48-.03 1.01.16 1.47.18.44.52.83 1.06.98a32.9 32.9 0 0 0-1.92 6.97 18.36 18.36 0 0 0-1.3-4.26 11.68 11.68 0 0 0-3.76-4.73 11.23 11.23 0 0 0-6.72-2 12.1 12.1 0 0 0-9.07 3.94c-2.2-2.28-5.47-3.93-9.89-3.93-3.54 0-6.25 1.06-8.24 2.69-.38.31-.74.65-1.07 1a11.86 11.86 0 0 0-8.88-3.7c-2.8 0-5.01.74-6.72 1.94a10.91 10.91 0 0 0-3.65 4.62 19.03 19.03 0 0 0-1.19 10.1.56.56 0 0 0 1.11-.19ZM23.16 30c.33-1.2.88-2.4 1.67-3.48.82 1.1 1.44 2.3 1.85 3.51.68 1.98.82 3.92.5 5.33-.32 1.44-1.04 2.13-1.94 2.13-.93 0-1.73-.73-2.18-2.17a9.7 9.7 0 0 1 .1-5.32Zm19.04.05a13.29 13.29 0 0 1 1.82-3.3c.8 1.03 1.4 2.16 1.8 3.29.7 1.97.79 3.9.39 5.3-.4 1.38-1.23 2.15-2.4 2.15-.6 0-1.06-.2-1.41-.55a3.16 3.16 0 0 1-.8-1.58 9.64 9.64 0 0 1 .6-5.31Zm4.5-21.68c.38-.12.82-.23 1.32-.32.08-.65.43-1.52 1.19-2.24.83-.8 2.12-1.37 4.01-1.37 3.81 0 5.47 2.35 5.81 3.66l.02.08c.25.06.5.12.71.19 1.42.43 2.32 1.08 2.6 1.98.3.9-.1 1.78-.63 2.5a9.08 9.08 0 0 1-2.07 1.92.56.56 0 1 1-.65-.92 7.97 7.97 0 0 0 1.82-1.68c.45-.61.58-1.11.46-1.48-.12-.36-.55-.85-1.85-1.24-1.28-.39-3.27-.64-6.22-.64-2.95 0-4.93.25-6.2.64-1.28.39-1.7.87-1.8 1.23-.1.36.04.86.52 1.48.46.6 1.16 1.2 1.87 1.68a.56.56 0 1 1-.63.94 9.48 9.48 0 0 1-2.13-1.93c-.55-.7-.97-1.59-.7-2.49.26-.91 1.14-1.56 2.55-2Zm6.52-.69c-1.57 0-2.9.07-4.02.2.12-.38.35-.84.78-1.25.6-.57 1.6-1.07 3.24-1.07 2.78 0 4.1 1.44 4.55 2.39a32.93 32.93 0 0 0-4.55-.27Zm18.08 9.35c.04.26.04.61-.02.97-.07.39-.2.71-.35.9-.11.15-.21.2-.33.2-.07-.06-.12-.15-.13-.3a1.9 1.9 0 0 1 .2-.85 3.16 3.16 0 0 1 .63-.92Zm-2.83 1.53v-.02a3.4 3.4 0 0 0-.36 1.2c-.05.39-.01.71.08.94.06.16.14.25.26.3.13-.05.23-.15.3-.34a3.17 3.17 0 0 0-.27-2.09Zm-1.42 3h.01c.14.25.27.63.33 1.04.06.42.04.8-.05 1.05-.07.19-.17.29-.3.33-.12-.04-.2-.13-.27-.3a2.06 2.06 0 0 1-.08-.92 3.4 3.4 0 0 1 .36-1.2Zm4.5-.9h.01l-.1.2c-.14.26-.38.55-.66.8-.29.26-.57.42-.8.48-.17.04-.3.03-.4-.04-.04-.14-.02-.27.1-.44a3.17 3.17 0 0 1 1.85-1Zm-1.4 3.01h-.01a3.26 3.26 0 0 0-1.86 1c-.1.17-.13.3-.09.44.1.07.22.08.4.04.23-.06.51-.23.8-.48a3.4 3.4 0 0 0 .76-1ZM4.87 17.86a.56.56 0 0 0-.02.58c.26.46.4 1.12.2 1.64-.1.26-.32.55-.78.8-.4-1-1.3-2.6-1.8-2.38-.55.23-.29.85-.1 1.13l-.1-.1c-.2-.2-.48-.46-.7-.23-.25.28.02.62.23.8-.18-.14-.75-.17-.72.11.1.75.67 1.1 1.17 1.31a.56.56 0 0 0-.1.4c.06.42.33.83.64 1.16a4.32 4.32 0 0 0 5.06.81c2.17-1.18 2.46-3.53 1.58-4.99.27-.22.28-.48.2-.56-.07-.08-.43.02-.7.15a.56.56 0 0 0-.54.89c.64.9.56 2.62-1.08 3.53a3.2 3.2 0 0 1-3.7-.6l-.02-.03c1.37-.29 2.18-.93 2.51-1.79a3 3 0 0 0-.1-2.24c.4-.4.7-.41.9-.37.29.06.58.31.75.57a.56.56 0 1 0 .93-.63 2.5 2.5 0 0 0-.44-.51c-.44-.72-1.25-1.68-1.82-1.38-.28.16-.26.37-.19.52-.15-.22-.44-.47-.72-.24-.32.27-.14.63-.01.78-.16-.07-.5-.16-.6.08-.08.15-.04.51.07.79Zm2.69 1.33c-.16.09-.41-.07-.55-.34-.15-.28-.13-.57.04-.65.16-.09.4.07.55.34.14.28.12.57-.04.65Zm32.33 11.97a.4.4 0 0 1-.1.44l-1.99 1.65c.43.24.71.63.75 1.1.06.8-.67 1.51-1.62 1.58h-.27c.06.1.1.22.13.35.14.71-.46 1.43-1.35 1.6-.73.15-1.43-.12-1.73-.62a2 2 0 0 1-.05.1c-.48.8-1.44 1.1-2.14.69a1.33 1.33 0 0 1-.36-.32c-.08.3-.26.58-.53.8-.61.52-1.45.53-1.87.04-.42-.5-.27-1.32.34-1.84.1-.09.22-.16.33-.22a.97.97 0 0 1-.28-.52c-.1-.58.35-1.13 1-1.24l.2-.02a1.1 1.1 0 0 1-.08-1.01c.2-.43.72-.65 1.29-.6a1.28 1.28 0 0 1-.02-1.23c.31-.62 1.03-.88 1.6-.59l.05.02c.23-.55.72-.93 1.3-.92.64.02 1.17.53 1.31 1.21a1.14 1.14 0 0 1 1.51 1.05l.83-.83a2.06 2.06 0 0 1-.89-.26 1.71 1.71 0 0 1-.59-.55c-.21.07-.45.08-.69 0a.93.93 0 0 1-.46-.33c-.1-.14-.16-.3-.2-.46a2.73 2.73 0 0 1-.03-.49v-.46a1.83 1.83 0 0 0-.2-.87.92.92 0 0 0-.73-.45c-.4-.06-.73.06-.91.21a.4.4 0 0 0-.14.21c-.01.05 0 .09.04.13.06.07.12.1.15.1.04.02.07.01.1 0a.21.21 0 0 0 .1-.07.1.1 0 0 0 .01-.05.24.24 0 1 1 .47-.03c.02.25-.16.48-.38.57a.63.63 0 0 1-.4.05.77.77 0 0 1-.4-.25.6.6 0 0 1-.15-.54.87.87 0 0 1 .3-.47c.28-.26.75-.4 1.28-.33.53.08.87.34 1.07.69.2.34.25.74.26 1.1v.45c0 .15 0 .29.03.4.02.12.06.21.11.28.05.07.12.12.23.16a.6.6 0 0 0 .34.02 1.7 1.7 0 0 1-.02-1.04c.1-.3.34-.58.72-.53.15.02.29.08.39.18.1.1.14.23.16.36.02.25-.07.53-.21.76-.1.17-.25.34-.42.47.1.15.23.28.4.37.26.15.63.24 1.14.19l.27-.27c.06-.07.14-.1.23-.11l.39-.04c.16-.01.32.08.38.23Zm-7.12 2.47Zm4.33-3.56c-.06.1-.14.2-.22.27a1.2 1.2 0 0 1 0-.64c.07-.2.16-.22.22-.22.07.01.1.03.1.05.02 0 .03.03.04.08a.8.8 0 0 1-.14.46Zm-2.91 5.12c.44-.03.74-.4.71-.78a.75.75 0 0 0-.82-.67.75.75 0 0 0-.72.78c.03.38.38.7.83.67Zm-1.72-.43s-.03.07-.2.1a1.1 1.1 0 0 1-.67-.1 1.1 1.1 0 0 1-.51-.45c-.08-.15-.05-.22-.05-.23 0 0 .04-.07.2-.1.17-.04.42-.02.68.1.26.12.43.3.5.45.09.15.06.22.05.23Zm-1.85 1.1c.05-.06.05-.1.04-.13 0-.02-.02-.06-.08-.1a.42.42 0 0 0-.29-.05.42.42 0 0 0-.26.14c-.04.06-.05.1-.04.13 0 .02.02.06.08.1.07.04.17.07.3.05a.42.42 0 0 0 .25-.14Zm5.34.58c.01.06 0 .17-.1.3a1 1 0 0 1-.58.32 1 1 0 0 1-.66-.08c-.15-.08-.2-.17-.2-.23-.02-.06-.01-.17.1-.3a1 1 0 0 1 .57-.32 1 1 0 0 1 .66.08c.15.08.2.17.2.23ZM36 33c.13.08.32.04.42-.13a.31.31 0 0 0-.1-.43.31.31 0 0 0-.42.13c-.1.17-.03.35.1.43Zm1.7 1.42c.02.2-.2.63-.83.67-.63.05-.91-.33-.93-.54-.01-.21.21-.63.84-.68.63-.04.9.34.92.55Zm-5.87 1.86c-.29.49-.1.92.12 1.05s.7.1.98-.4c.3-.48.1-.91-.12-1.04-.22-.14-.69-.1-.98.39Zm-2.42 1.75c-.02-.02-.06-.08-.03-.21a.7.7 0 0 1 .27-.43c.16-.14.34-.2.47-.2.13 0 .18.04.2.07.02.02.06.08.03.2-.02.14-.1.3-.27.44a.77.77 0 0 1-.47.2c-.13 0-.18-.05-.2-.07ZM35 32.01c0-.53-.34-.76-.54-.76s-.55.21-.56.74c0 .52.34.75.53.76.2 0 .55-.22.57-.74Zm-2.14.56c-.13.25-.36.27-.47.22-.1-.06-.23-.26-.1-.52.13-.25.37-.27.47-.22.11.06.23.26.1.52Z" clip-rule="evenodd"/></svg>