<svg width="1881" height="1530" viewBox="0 0 1881 1530" fill="none" xmlns="http://www.w3.org/2000/svg">
<path fill-rule="evenodd" clip-rule="evenodd" d="M424.655 70.7308C363.634 63.7236 292.55 75.0517 223.437 103.384C115.768 147.522 70.0758 234.375 67.7774 290.979C66.5974 320.039 76.3057 333.257 83.8634 337.497C91.3914 341.72 112.331 345.826 153.484 320.011C408.944 159.763 615.431 190.91 729.34 208.092C732.111 208.51 734.828 208.92 737.489 209.319C783.423 216.198 821.102 228.7 848.951 244.985C875.391 260.445 899.148 283.157 904.124 313.103C909.891 347.814 888.498 373.998 861.885 388.376C835.856 402.439 799.422 409.359 755.111 409.359C736.418 409.359 721.265 393.977 721.265 375.003C721.265 356.029 736.418 340.648 755.111 340.648C794.002 340.648 817.856 334.326 830.08 327.722C833.705 325.763 835.699 324.229 836.751 323.197C835.211 320.367 830.194 313.313 815.163 304.524C796.652 293.7 767.697 283.298 727.608 277.294C724.923 276.892 722.189 276.479 719.405 276.059C609.683 259.505 423.488 231.412 189.069 378.462C139.452 409.586 90.2824 419.606 51.1191 397.634C11.9854 375.679 -1.57947 330.592 0.143911 288.149C3.65226 201.747 68.4726 92.8073 198.089 39.6723C275.638 7.88148 358.087 -6.06291 432.264 2.45495C506.564 10.9868 574.901 42.5237 618.596 103.935C629.54 119.317 626.127 140.792 610.974 151.901C595.82 163.011 574.664 159.547 563.72 144.165C534.082 102.509 485.554 77.7239 424.655 70.7308ZM837.793 321.678C837.873 321.687 837.81 321.979 837.368 322.527C837.493 321.943 837.714 321.669 837.793 321.678Z" fill="#374E00"/>
<path d="M1880.18 1202.45C1880.18 1209.15 1879.7 1216.34 1878.73 1224C1877.77 1230.7 1876.33 1237.89 1874.41 1245.55C1867.68 1287.69 1861.91 1330.79 1857.1 1374.84C1853.25 1417.94 1847.48 1460.56 1839.79 1502.7C1839.79 1507.49 1837.87 1511.8 1834.02 1515.63C1827.29 1521.38 1819.12 1524.25 1809.5 1524.25C1762.39 1524.25 1715.28 1523.77 1668.16 1522.82C1621.05 1521.86 1573.45 1521.38 1525.38 1521.38C1466.72 1521.38 1408.07 1521.38 1349.42 1521.38C1291.73 1521.38 1233.56 1522.34 1174.9 1524.25C1142.21 1525.21 1110 1526.17 1078.27 1527.13C1046.54 1529.04 1014.33 1530 981.638 1530C970.1 1530 964.331 1523.3 964.331 1509.89C964.331 1496.48 971.061 1489.77 984.523 1489.77C994.138 1489.77 1003.27 1490.25 1011.93 1491.21C1021.54 1491.21 1030.68 1491.21 1039.33 1491.21C1052.79 1491.21 1066.25 1488.82 1079.71 1484.03C1094.14 1478.28 1101.35 1467.75 1101.35 1452.42V603.38C1101.35 584.225 1100.87 568.422 1099.9 555.972C1098.94 542.563 1094.14 532.507 1085.48 525.803C1077.79 519.099 1062.89 515.746 1040.77 515.746C1031.16 515.746 1022.02 516.225 1013.37 517.183C1004.71 518.141 995.58 518.62 985.965 518.62C978.273 518.62 973.465 516.704 971.542 512.873C969.619 508.084 968.658 502.338 968.658 495.634C968.658 489.887 969.138 485.099 970.1 481.268C972.023 476.479 976.35 474.084 983.08 474.084C1014.81 474.084 1046.06 474.563 1076.83 475.521C1108.56 476.479 1140.29 476.958 1172.02 476.958C1208.56 476.958 1245.57 476.479 1283.07 475.521C1320.57 474.563 1357.59 474.084 1394.13 474.084C1400.86 474.084 1404.71 476.479 1405.67 481.268C1407.59 485.099 1408.55 489.408 1408.55 494.197C1408.55 498.028 1407.59 502.817 1405.67 508.563C1404.71 513.352 1400.86 515.746 1394.13 515.746C1381.63 515.746 1369.13 515.746 1356.63 515.746C1345.09 514.789 1333.07 514.31 1320.57 514.31C1305.19 514.31 1289.8 516.225 1274.42 520.056C1259.04 523.887 1251.34 535.859 1251.34 555.972C1251.34 589.493 1250.86 623.014 1249.9 656.535C1249.9 690.056 1249.9 723.577 1249.9 757.099V1180.9C1249.9 1223.04 1249.9 1265.66 1249.9 1308.76C1250.86 1351.86 1251.34 1394.48 1251.34 1436.62C1251.34 1452.9 1258.07 1464.87 1271.54 1472.54C1285 1479.24 1300.38 1483.07 1317.69 1484.03C1335 1484.99 1349.42 1485.46 1360.96 1485.46C1403.26 1485.46 1445.57 1484.51 1487.88 1482.59C1530.18 1480.68 1572.01 1476.37 1613.35 1469.66C1640.28 1464.87 1665.76 1455.77 1689.8 1442.37C1714.79 1428 1736.43 1410.28 1754.7 1389.21C1778.74 1361.44 1797 1331.75 1809.5 1300.14C1822 1267.58 1834.5 1235.01 1847 1202.45C1849.89 1195.75 1853.25 1191.92 1857.1 1190.96C1860.95 1190 1865.75 1189.52 1871.52 1189.52C1874.41 1189.52 1876.33 1191.44 1877.29 1195.27C1879.21 1198.14 1880.18 1200.54 1880.18 1202.45Z" fill="#374E00"/>
<path d="M915.845 679.23C915.845 687.853 912.474 695.038 905.732 700.787C899.953 705.577 893.211 707.972 885.506 707.972C875.875 707.972 869.615 706.056 866.725 702.224C863.836 697.433 860.947 691.206 858.057 683.541C841.684 631.805 816.642 593.482 782.933 568.573C749.223 543.663 704.438 531.208 648.576 531.208H385.641V963.778C429.945 962.82 474.249 962.341 518.553 962.341C562.857 961.383 607.161 958.988 651.465 955.155C680.359 953.239 708.772 949.886 736.703 945.096C764.633 940.305 792.564 935.515 820.495 930.724H823.384C825.311 930.724 827.237 931.683 829.163 933.599C832.053 934.557 833.497 935.994 833.497 937.91C833.497 944.617 830.126 956.593 823.384 973.838C816.642 990.125 811.827 1001.62 808.937 1008.33C804.122 1019.83 796.898 1025.57 787.267 1025.57C780.525 1025.57 773.302 1025.57 765.596 1025.57C758.855 1024.62 751.631 1023.66 743.926 1022.7C710.216 1018.87 676.025 1016.95 641.353 1016.95C607.643 1015.99 573.933 1015.51 540.224 1015.51C527.703 1015.51 512.774 1015.51 495.438 1015.51C478.102 1015.51 460.765 1016.95 443.429 1019.83C427.056 1022.7 413.09 1028.93 401.533 1038.51C390.938 1047.13 385.641 1060.54 385.641 1078.75V1403.53C385.641 1414.07 388.049 1424.13 392.865 1433.71C398.643 1442.34 405.385 1450.48 413.09 1458.14C427.537 1470.6 445.355 1478.26 466.544 1481.14C488.696 1483.05 508.922 1484.01 527.221 1484.01C540.705 1484.01 547.447 1491.2 547.447 1505.57C547.447 1520.9 538.779 1528.56 521.443 1528.56C506.033 1528.56 490.141 1528.08 473.768 1527.13C457.394 1525.21 441.021 1524.25 424.648 1524.25C405.385 1524.25 385.641 1524.25 365.415 1524.25C346.153 1523.29 326.89 1522.81 307.627 1522.81C274.881 1522.81 242.134 1524.25 209.388 1527.13C177.605 1529.04 144.858 1530 111.148 1530C107.296 1530 102.962 1528.56 98.1462 1525.69C94.2937 1521.86 92.3674 1517.54 92.3674 1512.75C92.3674 1506.05 92.849 1500.78 93.8121 1496.95C95.7384 1492.16 100.554 1489.28 108.259 1488.32C115.964 1486.41 124.151 1485.45 132.819 1485.45C141.487 1484.49 149.674 1483.53 157.379 1482.58C193.015 1474.91 215.167 1461.02 223.835 1440.9C233.466 1419.82 238.282 1393 238.282 1360.42V591.566C238.282 569.531 230.577 555.16 215.167 548.453C199.757 541.746 181.457 538.393 160.268 538.393C140.042 538.393 122.706 538.393 108.259 538.393C89.9596 538.393 80.8098 530.25 80.8098 513.962C80.8098 506.298 81.773 499.591 83.6992 493.843C86.5886 488.094 92.3674 485.22 101.036 485.22C118.372 485.22 135.708 485.699 153.045 486.657C171.344 487.615 189.162 488.094 206.499 488.094H460.765C508.922 488.094 557.078 487.615 605.235 486.657C654.355 484.741 702.993 483.783 751.15 483.783C795.454 483.783 839.758 482.346 884.062 479.472C888.877 508.214 895.138 541.746 902.843 580.069C911.511 618.392 915.845 651.446 915.845 679.23Z" fill="#374E00"/>
</svg>
